<?xml version="1.0" encoding="UTF-8"?>
<svg xmlns="http://www.w3.org/2000/svg" xmlns:xlink="http://www.w3.org/1999/xlink" width="40px" height="40px" viewBox="0 0 40 40" version="1.1">
<g id="surface1">
<path style=" stroke:none;fill-rule:nonzero;fill:rgb(42.745098%,42.745098%,42.745098%);fill-opacity:1;" d="M 19.949219 -0.0117188 C 20.007812 -0.0117188 20.066406 -0.0117188 20.125 -0.0117188 C 21.011719 -0.0117188 21.882812 0.0117188 22.761719 0.140625 C 22.832031 0.152344 22.832031 0.152344 22.90625 0.160156 C 23.96875 0.316406 25.046875 0.5625 26.070312 0.898438 C 26.109375 0.910156 26.152344 0.925781 26.199219 0.9375 C 28.378906 1.644531 30.390625 2.714844 32.207031 4.109375 C 32.25 4.140625 32.25 4.140625 32.296875 4.175781 C 32.632812 4.433594 32.953125 4.695312 33.261719 4.984375 C 33.359375 5.074219 33.457031 5.160156 33.558594 5.246094 C 33.800781 5.457031 34.027344 5.683594 34.253906 5.910156 C 34.328125 5.984375 34.402344 6.058594 34.476562 6.132812 C 34.78125 6.433594 35.058594 6.746094 35.324219 7.082031 C 35.398438 7.171875 35.472656 7.257812 35.546875 7.34375 C 36.074219 7.976562 36.542969 8.652344 36.976562 9.351562 C 36.996094 9.378906 37.015625 9.410156 37.035156 9.441406 C 38.835938 12.363281 39.996094 15.824219 40.007812 19.28125 C 40.011719 19.332031 40.011719 19.386719 40.011719 19.441406 C 40.011719 19.609375 40.011719 19.78125 40.011719 19.949219 C 40.011719 20.035156 40.011719 20.035156 40.011719 20.125 C 40.011719 21 39.988281 21.851562 39.859375 22.714844 C 39.851562 22.773438 39.839844 22.828125 39.832031 22.886719 C 39.246094 26.765625 37.585938 30.351562 34.992188 33.292969 C 34.949219 33.347656 34.949219 33.347656 34.902344 33.398438 C 34.644531 33.691406 34.375 33.96875 34.101562 34.242188 C 34.03125 34.3125 33.964844 34.382812 33.894531 34.453125 C 33.597656 34.75 33.289062 35.015625 32.964844 35.277344 C 32.910156 35.320312 32.859375 35.363281 32.808594 35.410156 C 30.09375 37.773438 26.605469 39.242188 23.070312 39.800781 C 23.011719 39.8125 22.953125 39.820312 22.894531 39.832031 C 21.984375 39.964844 21.085938 40.015625 20.167969 40.011719 C 20 40.011719 19.832031 40.011719 19.664062 40.011719 C 18.742188 40.011719 17.839844 39.945312 16.929688 39.800781 C 16.898438 39.796875 16.867188 39.792969 16.835938 39.789062 C 13.632812 39.277344 10.558594 38.007812 7.980469 36.03125 C 7.941406 36 7.941406 36 7.898438 35.96875 C 7.472656 35.644531 7.0625 35.300781 6.660156 34.945312 C 6.605469 34.902344 6.605469 34.902344 6.554688 34.855469 C 6.261719 34.597656 5.984375 34.328125 5.710938 34.054688 C 5.640625 33.984375 5.570312 33.914062 5.5 33.847656 C 5.203125 33.550781 4.933594 33.242188 4.675781 32.917969 C 4.601562 32.828125 4.527344 32.742188 4.453125 32.65625 C 1.949219 29.648438 0.441406 25.84375 0.046875 21.960938 C 0.0429688 21.914062 0.0390625 21.871094 0.0351562 21.828125 C -0.015625 21.285156 -0.0078125 20.738281 -0.0078125 20.195312 C -0.0078125 20.023438 -0.0078125 19.855469 -0.0117188 19.683594 C -0.0117188 19.003906 0.015625 18.335938 0.09375 17.664062 C 0.0976562 17.628906 0.101562 17.59375 0.105469 17.558594 C 0.132812 17.339844 0.164062 17.121094 0.199219 16.902344 C 0.207031 16.855469 0.207031 16.855469 0.210938 16.804688 C 0.777344 13.144531 2.433594 9.523438 4.941406 6.78125 C 5 6.714844 5.0625 6.648438 5.121094 6.582031 C 5.355469 6.304688 5.609375 6.046875 5.863281 5.792969 C 5.9375 5.71875 6.011719 5.644531 6.085938 5.570312 C 6.351562 5.300781 6.621094 5.054688 6.917969 4.816406 C 7.027344 4.730469 7.128906 4.640625 7.234375 4.550781 C 7.546875 4.273438 7.882812 4.027344 8.21875 3.777344 C 8.25 3.753906 8.28125 3.730469 8.316406 3.703125 C 8.871094 3.292969 9.457031 2.941406 10.058594 2.597656 C 10.117188 2.566406 10.117188 2.566406 10.171875 2.53125 C 12.5625 1.15625 15.296875 0.296875 18.039062 0.046875 C 18.109375 0.0390625 18.109375 0.0390625 18.175781 0.0351562 C 18.765625 -0.015625 19.359375 -0.0117188 19.949219 -0.0117188 Z M 19.949219 -0.0117188 "/>
<path style=" stroke:none;fill-rule:nonzero;fill:rgb(99.607843%,99.607843%,99.607843%);fill-opacity:1;" d="M 10.390625 9.113281 C 17.558594 9.113281 24.726562 9.113281 32.113281 9.113281 C 31.894531 9.988281 31.894531 9.988281 31.765625 10.417969 C 31.757812 10.449219 31.746094 10.480469 31.738281 10.515625 C 31.722656 10.5625 31.722656 10.5625 31.710938 10.613281 C 31.6875 10.679688 31.667969 10.75 31.648438 10.816406 C 31.597656 10.996094 31.542969 11.175781 31.488281 11.351562 C 31.40625 11.636719 31.320312 11.921875 31.238281 12.207031 C 31.207031 12.304688 31.179688 12.402344 31.152344 12.5 C 30.996094 13.023438 30.847656 13.546875 30.695312 14.074219 C 28.15625 14.074219 25.617188 14.074219 23 14.074219 C 22.9375 14.339844 22.875 14.601562 22.808594 14.875 C 22.777344 15.015625 22.742188 15.152344 22.707031 15.292969 C 22.695312 15.328125 22.6875 15.363281 22.679688 15.402344 C 22.648438 15.519531 22.617188 15.636719 22.589844 15.753906 C 22.578125 15.792969 22.566406 15.835938 22.554688 15.878906 C 22.34375 16.707031 22.125 17.535156 21.90625 18.359375 C 21.878906 18.457031 21.855469 18.554688 21.828125 18.648438 C 21.660156 19.296875 21.484375 19.941406 21.308594 20.582031 C 21.070312 21.433594 20.847656 22.285156 20.621094 23.136719 C 19.808594 26.214844 19.808594 26.214844 19.535156 27.167969 C 19.363281 27.777344 19.191406 28.390625 19.027344 29.003906 C 19.015625 29.035156 19.007812 29.066406 19 29.097656 C 18.925781 29.378906 18.847656 29.660156 18.773438 29.941406 C 18.742188 30.0625 18.707031 30.179688 18.675781 30.300781 C 18.648438 30.410156 18.617188 30.519531 18.589844 30.628906 C 18.492188 30.984375 18.386719 31.335938 18.277344 31.6875 C 16.390625 31.6875 14.503906 31.6875 12.5625 31.6875 C 12.589844 31.480469 12.621094 31.300781 12.671875 31.101562 C 12.6875 31.054688 12.699219 31.007812 12.710938 30.960938 C 12.726562 30.910156 12.738281 30.859375 12.753906 30.804688 C 12.769531 30.753906 12.78125 30.699219 12.796875 30.644531 C 12.921875 30.183594 13.054688 29.726562 13.1875 29.269531 C 13.285156 28.929688 13.375 28.589844 13.457031 28.246094 C 13.511719 28.027344 13.574219 27.8125 13.636719 27.597656 C 13.785156 27.082031 13.925781 26.566406 14.066406 26.046875 C 14.09375 25.957031 14.117188 25.863281 14.140625 25.773438 C 14.296875 25.210938 14.445312 24.644531 14.597656 24.082031 C 14.722656 23.601562 14.855469 23.121094 14.992188 22.640625 C 15.15625 22.054688 15.316406 21.464844 15.472656 20.875 C 15.632812 20.269531 15.796875 19.664062 15.964844 19.058594 C 16.046875 18.761719 16.128906 18.460938 16.210938 18.164062 C 16.222656 18.128906 16.230469 18.097656 16.238281 18.0625 C 16.277344 17.925781 16.3125 17.792969 16.351562 17.65625 C 16.457031 17.261719 16.566406 16.871094 16.679688 16.480469 C 16.792969 16.089844 16.894531 15.695312 16.988281 15.300781 C 17.089844 14.886719 17.210938 14.484375 17.332031 14.074219 C 14.542969 14.074219 11.753906 14.074219 8.878906 14.074219 C 8.960938 13.765625 9.046875 13.460938 9.140625 13.15625 C 9.5625 11.808594 9.976562 10.460938 10.390625 9.113281 Z M 10.390625 9.113281 "/>
<path style=" stroke:none;fill-rule:nonzero;fill:rgb(36.078432%,36.078432%,36.078432%);fill-opacity:1;" d="M 8.925781 14.074219 C 11.699219 14.074219 14.472656 14.074219 17.332031 14.074219 C 17.316406 14.152344 17.300781 14.230469 17.285156 14.308594 C 17.269531 14.261719 17.253906 14.214844 17.238281 14.167969 C 14.480469 14.167969 11.71875 14.167969 8.878906 14.167969 C 8.894531 14.136719 8.910156 14.105469 8.925781 14.074219 Z M 8.925781 14.074219 "/>
<path style=" stroke:none;fill-rule:nonzero;fill:rgb(36.470589%,36.078432%,36.078432%);fill-opacity:1;" d="M 18.9375 29.234375 C 18.988281 29.316406 18.988281 29.316406 19.03125 29.421875 C 19.015625 29.46875 19 29.515625 18.984375 29.5625 C 18.953125 29.5625 18.921875 29.5625 18.890625 29.5625 C 18.875 29.609375 18.859375 29.65625 18.84375 29.703125 C 18.882812 29.339844 18.882812 29.339844 18.9375 29.234375 Z M 18.9375 29.234375 "/>
</g>
</svg>
