<?xml version="1.0" encoding="UTF-8"?>
<svg xmlns="http://www.w3.org/2000/svg" xmlns:xlink="http://www.w3.org/1999/xlink" width="40px" height="40px" viewBox="0 0 40 40" version="1.1">
<g id="surface1">
<path style=" stroke:none;fill-rule:nonzero;fill:rgb(0%,0%,0%);fill-opacity:1;" d="M 15.0625 0.660156 C 7.96875 2.546875 2.4375 8.144531 0.625 15.316406 C -2.03125 25.753906 4.5625 36.605469 15.1875 39.339844 C 19.84375 40.535156 24.96875 39.90625 29.375 37.578125 C 31.78125 36.320312 35.21875 33.332031 36.28125 31.605469 L 36.96875 30.472656 L 34.96875 28.460938 L 32.9375 26.414062 L 31.875 26.980469 C 30.34375 27.765625 26.8125 27.734375 25.21875 26.949219 L 24.0625 26.382812 L 22.09375 28.492188 C 21.03125 29.683594 20.09375 31.007812 20 31.445312 C 19.75 32.671875 18.3125 32.765625 17.875 31.574219 C 17.46875 30.410156 11.84375 27.359375 10.59375 27.609375 C 9.625 27.796875 8.875 27.042969 9.21875 26.226562 C 9.375 25.910156 9.4375 25.441406 9.40625 25.1875 C 9.375 24.875 9.4375 24.84375 9.59375 25.0625 C 10.15625 25.816406 11.03125 25.847656 11.78125 25.15625 C 12.9375 24.023438 12.71875 23.617188 10.9375 23.617188 C 9.65625 23.617188 9.375 23.710938 9.375 24.152344 C 9.34375 24.683594 9.34375 24.683594 9.03125 24.183594 C 8.78125 23.710938 8.28125 23.617188 6.40625 23.617188 C 4.40625 23.617188 4 23.710938 3.1875 24.402344 C 2.6875 24.8125 2.1875 25.09375 2.0625 24.96875 C 1.96875 24.875 1.875 22.578125 1.875 19.90625 L 1.875 15.0625 L 2.9375 13.992188 L 4 12.925781 L 7.25 12.894531 C 9 12.863281 11.0625 12.863281 11.8125 12.925781 C 13.03125 12.988281 14.0625 12.546875 14.0625 11.980469 C 14.0625 11.855469 13.5 11.507812 12.8125 11.195312 C 11.84375 10.753906 11.46875 10.722656 11.125 11.007812 C 10.46875 11.574219 9.3125 10.878906 9.4375 10.03125 C 9.59375 9.023438 10.46875 8.585938 11.15625 9.214844 C 11.6875 9.683594 11.90625 9.652344 14.46875 8.617188 C 16.46875 7.796875 17.34375 7.296875 17.59375 6.730469 C 18.09375 5.628906 19.5 5.816406 19.625 7.011719 C 19.71875 7.703125 20.1875 8.207031 21.90625 9.308594 C 23.09375 10.09375 24.125 10.722656 24.1875 10.722656 C 24.25 10.722656 24.375 10.441406 24.46875 10.09375 C 24.65625 9.402344 25.6875 9.246094 26.15625 9.84375 C 26.59375 10.410156 26.5625 12.359375 26.125 12.011719 C 25.375 11.414062 24.0625 11.351562 22.84375 11.855469 C 21.5 12.390625 21.5 12.515625 22.59375 14.023438 C 23.03125 14.589844 23.125 14.621094 23.65625 14.152344 C 26.5625 11.539062 31.4375 11.824219 34.125 14.683594 C 36.3125 17.042969 36.875 20.691406 35.46875 23.492188 L 34.6875 25.03125 L 36.375 26.730469 C 38 28.363281 38.0625 28.394531 38.40625 27.734375 C 38.625 27.359375 39.0625 25.976562 39.375 24.652344 C 42.03125 14.246094 35.4375 3.394531 24.8125 0.660156 C 21.75 -0.125 18.09375 -0.125 15.0625 0.660156 Z M 15.0625 0.660156 "/>
<path style=" stroke:none;fill-rule:nonzero;fill:rgb(0%,0%,0%);fill-opacity:1;" d="M 15.3125 8.554688 C 14.1875 9.054688 12.875 9.589844 12.34375 9.78125 L 11.40625 10.125 L 12.8125 10.878906 L 14.21875 11.605469 L 14.9375 10.945312 C 15.875 10.0625 17.625 7.894531 17.46875 7.765625 C 17.40625 7.734375 16.4375 8.082031 15.3125 8.554688 Z M 15.3125 8.554688 "/>
<path style=" stroke:none;fill-rule:nonzero;fill:rgb(0%,0%,0%);fill-opacity:1;" d="M 19.0625 8.175781 C 19.0625 8.585938 21.1875 11.980469 21.46875 11.980469 C 21.9375 11.980469 23.75 11.195312 23.75 11.007812 C 23.75 10.878906 23 10.316406 22.125 9.75 C 21.21875 9.214844 20.15625 8.554688 19.78125 8.269531 C 19.3125 7.988281 19.0625 7.957031 19.0625 8.175781 Z M 19.0625 8.175781 "/>
<path style=" stroke:none;fill-rule:nonzero;fill:rgb(0%,0%,0%);fill-opacity:1;" d="M 16.21875 9.96875 L 14.5625 11.761719 L 16.21875 12.484375 C 17.15625 12.894531 18.0625 13.238281 18.28125 13.238281 C 18.9375 13.238281 21 12.296875 20.875 12.042969 C 20.375 10.910156 18.53125 8.207031 18.25 8.207031 C 18.0625 8.207031 17.15625 8.992188 16.21875 9.96875 Z M 16.21875 9.96875 "/>
<path style=" stroke:none;fill-rule:nonzero;fill:rgb(0%,0%,0%);fill-opacity:1;" d="M 14.09375 12.421875 C 13.8125 12.765625 14.03125 12.863281 15.1875 13.019531 C 16.1875 13.113281 16.875 13.425781 17.46875 13.992188 C 18.1875 14.71875 18.28125 15.125 18.375 17.328125 L 18.5 19.84375 L 19.65625 19.84375 C 20.75 19.84375 20.8125 19.78125 21.125 18.363281 L 21.46875 16.886719 L 19.875 15.25 C 18 13.363281 14.65625 11.730469 14.09375 12.421875 Z M 14.09375 12.421875 "/>
<path style=" stroke:none;fill-rule:nonzero;fill:rgb(0%,0%,0%);fill-opacity:1;" d="M 19.71875 13.144531 L 18.65625 13.585938 L 21.59375 16.539062 L 22.15625 15.753906 C 22.75 15 22.75 14.96875 22.09375 13.804688 C 21.34375 12.484375 21.25 12.453125 19.71875 13.144531 Z M 19.71875 13.144531 "/>
<path style=" stroke:none;fill-rule:nonzero;fill:rgb(0%,0%,0%);fill-opacity:1;" d="M 3.40625 14.464844 L 2.5 15.378906 L 2.5 19.652344 C 2.5 22.011719 2.625 23.929688 2.78125 23.929688 C 2.9375 23.929688 3.21875 23.710938 3.4375 23.460938 C 3.75 23.082031 4.90625 22.988281 10.0625 22.988281 C 16.25 22.988281 16.28125 22.988281 17.03125 22.203125 C 17.75 21.507812 17.8125 21.226562 17.8125 18.425781 C 17.8125 15.503906 17.78125 15.347656 16.90625 14.464844 L 16 13.554688 L 4.3125 13.554688 Z M 13.28125 17.957031 C 13.15625 18.144531 11.3125 18.269531 8.71875 18.269531 C 6.03125 18.269531 4.375 18.144531 4.375 17.957031 C 4.375 17.765625 6.09375 17.640625 8.9375 17.640625 C 11.875 17.640625 13.40625 17.765625 13.28125 17.957031 Z M 10.9375 19.84375 C 10.9375 20.03125 9.625 20.15625 7.65625 20.15625 C 5.6875 20.15625 4.375 20.03125 4.375 19.84375 C 4.375 19.652344 5.6875 19.527344 7.65625 19.527344 C 9.625 19.527344 10.9375 19.652344 10.9375 19.84375 Z M 10.9375 19.84375 "/>
<path style=" stroke:none;fill-rule:nonzero;fill:rgb(0%,0%,0%);fill-opacity:1;" d="M 25.59375 14.277344 C 23.53125 15.378906 22.40625 17.203125 22.25 19.621094 C 22.15625 21.226562 22.28125 21.824219 22.875 22.988281 C 25.03125 27.011719 30.625 27.640625 33.5625 24.183594 C 37.125 20.03125 34.09375 13.554688 28.59375 13.554688 C 27.5 13.554688 26.53125 13.804688 25.59375 14.277344 Z M 26.40625 16.949219 C 26.40625 17.957031 27.375 18.300781 27.75 17.421875 C 27.875 17.105469 28.28125 16.824219 28.6875 16.792969 C 29.09375 16.730469 29.34375 16.824219 29.25 16.980469 C 28.96875 17.390625 29.9375 18.050781 30.5 17.832031 C 30.875 17.703125 30.9375 17.390625 30.78125 16.699219 C 30.65625 16.195312 30.71875 15.753906 30.875 15.753906 C 31.03125 15.753906 31.15625 15.945312 31.15625 16.132812 C 31.15625 16.351562 31.28125 16.761719 31.375 17.042969 C 31.53125 17.390625 31.34375 17.734375 30.78125 18.082031 C 29.8125 18.710938 30.03125 19.214844 31.28125 19.214844 C 32.03125 19.214844 32.1875 19.339844 32.1875 19.96875 C 32.1875 20.410156 32.34375 20.847656 32.5 20.945312 C 32.6875 21.039062 32.8125 21.289062 32.8125 21.476562 C 32.8125 21.699219 32.625 21.667969 32.34375 21.414062 C 32.09375 21.195312 31.875 20.691406 31.875 20.28125 C 31.875 19.71875 31.71875 19.527344 31.1875 19.558594 C 30.78125 19.558594 30.65625 19.652344 30.875 19.75 C 31.09375 19.84375 31.25 20.503906 31.25 21.539062 C 31.25 22.453125 31.40625 23.332031 31.625 23.554688 C 31.90625 23.835938 31.90625 23.929688 31.65625 23.929688 C 31.0625 23.929688 30.8125 23.238281 30.875 21.730469 L 30.9375 20.316406 L 30.53125 21.414062 C 30.0625 22.734375 28.6875 23.617188 27.90625 23.113281 C 27.59375 22.925781 27.09375 22.296875 26.78125 21.699219 L 26.21875 20.628906 L 26.375 21.949219 C 26.5 23.175781 26.15625 23.929688 25.5 23.929688 C 25.3125 23.929688 25.34375 23.773438 25.5625 23.554688 C 25.78125 23.332031 25.9375 22.515625 25.9375 21.730469 C 25.9375 20.945312 26.125 20.09375 26.34375 19.875 C 26.65625 19.558594 26.59375 19.496094 26.09375 19.589844 C 25.75 19.652344 25.4375 20 25.375 20.378906 C 25.3125 20.753906 25.0625 21.226562 24.8125 21.414062 C 24.3125 21.855469 24.25 21.636719 24.65625 20.847656 C 24.8125 20.566406 25.03125 20.0625 25.125 19.75 C 25.25 19.402344 25.625 19.214844 26.25 19.214844 C 27.40625 19.214844 27.4375 18.835938 26.375 18.113281 C 25.8125 17.765625 25.65625 17.421875 25.78125 17.074219 C 25.90625 16.792969 26.03125 16.351562 26.03125 16.132812 C 26.0625 15.378906 26.40625 16.132812 26.40625 16.949219 Z M 26.40625 16.949219 "/>
<path style=" stroke:none;fill-rule:nonzero;fill:rgb(0%,0%,0%);fill-opacity:1;" d="M 18.4375 20.976562 C 18.4375 21.445312 18.0625 22.167969 17.53125 22.703125 C 16.75 23.492188 16.375 23.617188 14.90625 23.617188 C 13.28125 23.617188 13.15625 23.679688 12.53125 24.71875 C 12.1875 25.316406 11.75 25.816406 11.5625 25.816406 C 11.40625 25.816406 11.25 25.976562 11.25 26.132812 C 11.25 26.351562 12.46875 26.445312 14.6875 26.414062 C 18.0625 26.351562 18.125 26.351562 19.96875 25.15625 L 21.84375 23.960938 L 21.40625 22.640625 C 21.15625 21.917969 20.9375 21.070312 20.9375 20.753906 C 20.9375 20.28125 20.6875 20.15625 19.6875 20.15625 C 18.5625 20.15625 18.4375 20.21875 18.4375 20.976562 Z M 18.4375 20.976562 "/>
<path style=" stroke:none;fill-rule:nonzero;fill:rgb(0%,0%,0%);fill-opacity:1;" d="M 19.625 25.691406 C 18.28125 26.476562 17.1875 27.265625 17.1875 27.390625 C 17.1875 27.796875 18.5 30.03125 18.90625 30.28125 C 19.53125 30.753906 19.90625 30.503906 21.84375 28.300781 L 23.84375 26.070312 L 22.9375 25.15625 L 22.03125 24.277344 Z M 19.625 25.691406 "/>
<path style=" stroke:none;fill-rule:nonzero;fill:rgb(0%,0%,0%);fill-opacity:1;" d="M 11.40625 27.011719 C 11.9375 27.515625 18.125 30.628906 18.28125 30.472656 C 18.375 30.410156 17.96875 29.558594 17.40625 28.617188 L 16.40625 26.917969 L 13.75 26.824219 C 12.125 26.761719 11.21875 26.855469 11.40625 27.011719 Z M 11.40625 27.011719 "/>
</g>
</svg>
